<?xml version="1.0" standalone="no"?>
<!DOCTYPE svg PUBLIC "-//W3C//DTD SVG 20010904//EN"
 "http://www.w3.org/TR/2001/REC-SVG-20010904/DTD/svg10.dtd">
<svg version="1.0" xmlns="http://www.w3.org/2000/svg"
 width="200.000000pt" height="200.000000pt" viewBox="0 0 200.000000 200.000000"
 preserveAspectRatio="xMidYMid meet">

<g transform="translate(0.000000,200.000000) scale(0.100000,-0.100000)"
fill="#000000" stroke="none">
<path d="M0 1000 l0 -1000 493 1 c445 1 486 2 428 14 -387 84 -692 354 -804
711 -128 407 22 859 369 1111 72 52 219 120 310 142 l79 20 -437 0 -438 1 0
-1000z"/>
<path d="M1266 1976 c274 -71 516 -283 614 -538 179 -463 -67 -980 -535 -1128
-50 -16 -105 -24 -195 -27 -143 -6 -248 13 -366 67 -187 85 -359 271 -415 450
-128 413 97 838 501 946 87 23 253 23 339 0 35 -9 92 -31 127 -47 63 -30 164
-102 164 -117 -1 -4 -18 -27 -40 -51 l-38 -44 -33 27 c-115 97 -319 140 -474
101 -250 -64 -434 -302 -435 -563 0 -78 27 -198 62 -272 40 -82 167 -211 253
-257 109 -57 196 -78 325 -77 101 0 124 4 189 28 232 87 392 271 436 500 73
383 -154 722 -548 816 -270 65 -537 -26 -730 -250 -60 -69 -140 -232 -161
-327 -20 -92 -20 -252 0 -351 32 -158 142 -334 277 -441 80 -65 221 -136 322
-163 114 -30 317 -30 430 1 104 28 226 89 303 151 34 28 65 50 70 50 4 0 45
-36 92 -80 l85 -80 -45 -41 c-121 -111 -310 -207 -480 -243 -60 -13 -39 -14
288 -15 l352 -1 0 1000 0 1000 -412 0 -413 -1 91 -23z m-146 -397 c78 -12 175
-55 248 -111 l54 -40 59 61 58 62 40 -51 c86 -109 131 -243 131 -392 0 -181
-56 -316 -184 -443 -134 -132 -261 -181 -446 -172 -123 6 -199 29 -291 88
-166 108 -259 271 -259 455 0 164 42 273 148 385 92 98 225 161 357 168 11 0
49 -4 85 -10z"/>
<path d="M700 941 l0 -209 43 -37 c109 -95 224 -137 372 -137 148 0 267 44
363 135 l32 31 0 213 0 213 -405 0 -405 0 0 -209z m640 9 c0 -20 -5 -20 -232
-18 -212 3 -233 5 -236 21 -3 16 13 17 232 17 230 0 236 -1 236 -20z m0 -100
c0 -19 -7 -20 -235 -20 -189 0 -235 3 -235 13 0 8 3 17 7 20 3 4 109 7 235 7
221 0 228 -1 228 -20z m-5 -115 c0 -19 -8 -20 -224 -23 -133 -1 -229 2 -234 7
-5 5 -7 17 -4 26 6 13 34 15 234 13 220 -3 228 -4 228 -23z"/>
</g>
</svg>
