<?xml version="1.0" encoding="UTF-8" standalone="no"?>
<svg
   version="1.0"
   width="200.000000pt"
   height="200.000000pt"
   viewBox="0 0 200.000000 200.000000"
   preserveAspectRatio="xMidYMid meet"
   id="svg10"
   sodipodi:docname="logo-alma-small.svg"
   inkscape:version="1.1.2 (0a00cf5339, 2022-02-04)"
   xmlns:inkscape="http://www.inkscape.org/namespaces/inkscape"
   xmlns:sodipodi="http://sodipodi.sourceforge.net/DTD/sodipodi-0.dtd"
   xmlns="http://www.w3.org/2000/svg"
   xmlns:svg="http://www.w3.org/2000/svg">
  <defs
     id="defs14" />
  <sodipodi:namedview
     id="namedview12"
     pagecolor="#ffffff"
     bordercolor="#666666"
     borderopacity="1.0"
     inkscape:pageshadow="2"
     inkscape:pageopacity="0.0"
     inkscape:pagecheckerboard="0"
     inkscape:document-units="pt"
     showgrid="false"
     inkscape:zoom="2.8714251"
     inkscape:cx="247.78636"
     inkscape:cy="136.69171"
     inkscape:window-width="1920"
     inkscape:window-height="1003"
     inkscape:window-x="0"
     inkscape:window-y="34"
     inkscape:window-maximized="1"
     inkscape:current-layer="svg10" />
  <g
     transform="matrix(0.03471098,0,0,-0.03367321,51.33686,117.39486)"
     fill="#000000"
     stroke="none"
     id="g8">
    <path
       d="M 0,1000 V 0 L 493,1 C 938,2 979,3 921,15 534,99 229,369 117,726 c -128,407 22,859 369,1111 72,52 219,120 310,142 l 79,20 H 438 l -438,1 z"
       id="path2" />
    <path
       d="m 1266,1976 c 274,-71 516,-283 614,-538 179,-463 -67,-980 -535,-1128 -50,-16 -105,-24 -195,-27 -143,-6 -248,13 -366,67 -187,85 -359,271 -415,450 -128,413 97,838 501,946 87,23 253,23 339,0 35,-9 92,-31 127,-47 63,-30 164,-102 164,-117 -1,-4 -18,-27 -40,-51 l -38,-44 -33,27 c -115,97 -319,140 -474,101 -250,-64 -434,-302 -435,-563 0,-78 27,-198 62,-272 40,-82 167,-211 253,-257 109,-57 196,-78 325,-77 101,0 124,4 189,28 232,87 392,271 436,500 73,383 -154,722 -548,816 -270,65 -537,-26 -730,-250 -60,-69 -140,-232 -161,-327 -20,-92 -20,-252 0,-351 32,-158 142,-334 277,-441 80,-65 221,-136 322,-163 114,-30 317,-30 430,1 104,28 226,89 303,151 34,28 65,50 70,50 4,0 45,-36 92,-80 l 85,-80 -45,-41 C 1719,148 1530,52 1360,16 1300,3 1321,2 1648,1 l 352,-1 v 1000 1000 h -412 l -413,-1 z m -146,-397 c 78,-12 175,-55 248,-111 l 54,-40 59,61 58,62 40,-51 c 86,-109 131,-243 131,-392 0,-181 -56,-316 -184,-443 -134,-132 -261,-181 -446,-172 -123,6 -199,29 -291,88 -166,108 -259,271 -259,455 0,164 42,273 148,385 92,98 225,161 357,168 11,0 49,-4 85,-10 z"
       id="path4" />
    <path
       d="M 700,941 V 732 l 43,-37 c 109,-95 224,-137 372,-137 148,0 267,44 363,135 l 32,31 v 213 213 H 1105 700 Z m 640,9 c 0,-20 -5,-20 -232,-18 -212,3 -233,5 -236,21 -3,16 13,17 232,17 230,0 236,-1 236,-20 z m 0,-100 c 0,-19 -7,-20 -235,-20 -189,0 -235,3 -235,13 0,8 3,17 7,20 3,4 109,7 235,7 221,0 228,-1 228,-20 z m -5,-115 c 0,-19 -8,-20 -224,-23 -133,-1 -229,2 -234,7 -5,5 -7,17 -4,26 6,13 34,15 234,13 220,-3 228,-4 228,-23 z"
       id="path6" />
  </g>
  <text
     xml:space="preserve"
     style="font-style:normal;font-weight:normal;font-size:30px;line-height:1.25;font-family:sans-serif;fill:#000000;fill-opacity:1;stroke:none;stroke-width:0.75"
     x="46.147598"
     y="140.87418"
     id="text2152"><tspan
       sodipodi:role="line"
       id="tspan2150"
       style="font-weight:bold;stroke-width:0.75"
       x="46.147598"
       y="140.87418">alma</tspan></text>
</svg>
