<?xml version="1.0" encoding="UTF-8" standalone="no"?>
<svg
   version="1.0"
   width="600pt"
   height="200pt"
   viewBox="0 0 600 200"
   preserveAspectRatio="xMidYMid meet"
   id="svg14"
   sodipodi:docname="logo-alma-large.svg"
   inkscape:version="1.1.2 (0a00cf5339, 2022-02-04)"
   xmlns:inkscape="http://www.inkscape.org/namespaces/inkscape"
   xmlns:sodipodi="http://sodipodi.sourceforge.net/DTD/sodipodi-0.dtd"
   xmlns="http://www.w3.org/2000/svg"
   xmlns:svg="http://www.w3.org/2000/svg">
  <defs
     id="defs18" />
  <sodipodi:namedview
     id="namedview16"
     pagecolor="#ffffff"
     bordercolor="#666666"
     borderopacity="1.0"
     inkscape:pageshadow="2"
     inkscape:pageopacity="0.0"
     inkscape:pagecheckerboard="0"
     inkscape:document-units="pt"
     showgrid="false"
     inkscape:zoom="1.572376"
     inkscape:cx="411.79718"
     inkscape:cy="179.66441"
     inkscape:window-width="1920"
     inkscape:window-height="1003"
     inkscape:window-x="0"
     inkscape:window-y="34"
     inkscape:window-maximized="1"
     inkscape:current-layer="svg14"
     width="600pt" />
  <g
     transform="matrix(0.1,0,0,-0.1,0,200)"
     fill="#000000"
     stroke="none"
     id="g12">
    <path
       d="m 874,1989 c -23.86332,-3.6368 -9.96561,-1.0957 -23.86332,-3.6368 -12.0444,-2.2021 -15.59248,-1.6614 -29.29139,-5.3632 -29.34223,-8.5553 -21.6884,-7.0268 -43.44863,-13.6197 C 722.09392,1954.591 562,1880 486,1826 411,1773 299,1655 247,1577 193,1495 132,1360 109,1271 99,1229 87,1148 84,1090 58,665 284,292 683,105 779,60 946.13706,17.87609 957,18 c 12.24827,-2.994778 21.14827,-6.333799 28,-8 10.16159,-3.8657158 294.9082,-9.33580361 310,1 9.2662,1.074792 13.4453,3.769753 19,6 23.4945,5.019399 107,19 181,46 110,40 260,129 340,201 l 40,36 -80,75 c -44,41 -85,75 -91,75 -6,0 -19,-9 -30,-21 -10,-11 -48,-40 -85,-65 C 1281,159 867,181 575,417 452,517 343,679 304,823 c -25,90 -30,274 -9,375 45,222 202,435 397,537 104,55 179,75 298,82 228,12 447,-78 604,-249 222,-238 234,-618 29,-880 -81,-102 -182,-173 -318,-223 -71,-27 -92,-30 -190,-29 -198,2 -355,71 -489,215 -109,117 -149,228 -149,404 0,86 4,124 21,174 81,237 277,392 518,408 130,9 284,-38 373,-113 l 32,-26 34,38 c 19,22 34,42 35,45 0,13 -132,109 -150,109 -6,0 -28,9 -50,20 -91,46 -284,59 -420,28 -70,-16 -199,-82 -265,-135 -74,-60 -160,-174 -203,-268 -80,-179 -79,-443 5,-609 101,-202 275,-345 503,-414 81,-25 342,-24 425,2 89,27 222,99 296,160 121,99 233,280 275,441 25,99 25,323 0,420 -51,192 -167,361 -330,483 -90,66 -243,138 -326,153 -39.5147,11.6213 -60.318,15.186 -76,21 -14.4527,7.119 -292,10 -300,-3 z"
       id="path2"
       sodipodi:nodetypes="csccccccccccccsccsccccccccccccsccccccscccccccccccccc" />
    <path
       d="M 958,1569 C 839,1552 698,1456 621,1340 558,1245 545,1194 545,1039 V 903 l 42,-84 c 99,-200 292,-319 514,-319 180,0 296,47 419,170 129,128 180,254 180,440 0,161 -37,269 -133,392 l -29,38 -50,-55 c -27,-30 -57,-55 -65,-55 -8,0 -36,15 -62,34 -76,56 -166,95 -238,106 -77,11 -86,11 -165,-1 z m 560,-628 2,-214 -27,-30 c -16,-16 -54,-47 -86,-68 C 1206,498 926,523 738,690 l -48,42 v 207 c 0,114 3,211 7,214 4,4 189,6 412,5 l 406,-3 z"
       id="path4" />
    <path
       d="m 880,950 c 0,-6 84,-10 231,-10 151,0 228,3 224,10 -4,6 -92,10 -231,10 -143,0 -224,-4 -224,-10 z"
       id="path6" />
    <path
       d="m 880,850 c 0,-6 82,-10 225,-10 143,0 225,4 225,10 0,6 -82,10 -225,10 -143,0 -225,-4 -225,-10 z"
       id="path8" />
    <path
       d="m 880,735 c 0,-13 32,-15 225,-15 193,0 225,2 225,15 0,13 -32,15 -225,15 -193,0 -225,-2 -225,-15 z"
       id="path10" />
  </g>
  <text
     xml:space="preserve"
     style="font-style:normal;font-variant:normal;font-weight:bold;font-stretch:normal;font-size:186.777px;line-height:1.25;font-family:'EB Garamond';-inkscape-font-specification:'EB Garamond Bold';stroke-width:1.16736"
     x="224.63255"
     y="178.18703"
     id="text1223"
     transform="scale(0.99193971,1.0081258)"><tspan
       sodipodi:role="line"
       id="tspan1221"
       style="font-style:normal;font-variant:normal;font-weight:bold;font-stretch:normal;font-size:186.777px;font-family:'EB Garamond';-inkscape-font-specification:'EB Garamond Bold';stroke-width:1.16736"
       x="224.63255"
       y="178.18703">alma</tspan></text>
</svg>
